<?xml version="1.0" standalone="no"?>
<!DOCTYPE svg PUBLIC "-//W3C//DTD SVG 20010904//EN"
 "http://www.w3.org/TR/2001/REC-SVG-20010904/DTD/svg10.dtd">
<svg version="1.0" xmlns="http://www.w3.org/2000/svg"
 width="780.000000pt" height="780.000000pt" viewBox="0 0 780.000000 780.000000"
 preserveAspectRatio="xMidYMid meet">
<metadata>
Created by potrace 1.14, written by Peter Selinger 2001-2017
</metadata>
<g transform="translate(0.000000,780.000000) scale(0.100000,-0.100000)"
fill="#000000" stroke="none">
<path d="M3700 6624 c-19 -2 -78 -9 -130 -15 -212 -23 -467 -88 -672 -170
-250 -99 -543 -273 -738 -437 -120 -101 -325 -311 -411 -422 -290 -373 -477
-808 -550 -1281 -30 -192 -33 -580 -6 -764 64 -435 203 -799 438 -1150 113
-169 215 -290 381 -451 418 -405 926 -652 1523 -741 168 -24 562 -24 730 0
231 34 442 90 640 169 247 98 541 273 735 436 120 101 325 311 411 422 290
373 477 808 550 1281 30 192 33 580 6 764 -64 435 -203 799 -438 1150 -113
169 -215 290 -381 451 -411 398 -917 648 -1491 735 -126 19 -505 34 -597 23z
m960 -1192 c103 -36 164 -74 237 -147 231 -231 230 -590 -2 -822 -231 -231
-590 -230 -822 2 -230 230 -230 590 1 821 80 80 180 137 280 160 82 18 234 12
306 -14z"/>
</g>
</svg>
